<svg xmlns="http://www.w3.org/2000/svg" viewBox="0 0 1600 900" role="img" aria-labelledby="title desc">
  <title id="title">NERVA logo</title>
  <desc id="desc">Minimal NERVA logo with a geometric N mark and outlined wordmark.</desc>
  <defs>
    <linearGradient id="white" x1="0" y1="0" x2="1" y2="1">
      <stop offset="0" stop-color="#ffffff"/>
      <stop offset="1" stop-color="#dfe5ea"/>
    </linearGradient>
    <linearGradient id="orange" x1="0" y1="0" x2="1" y2="1">
      <stop offset="0" stop-color="#ff6a2a"/>
      <stop offset="1" stop-color="#ff2f12"/>
    </linearGradient>
  </defs>

  <!-- Icon mark -->
  <g transform="translate(267 319) scale(1.35)">
    <path d="M0 245 L53 245 L95 94 L168 245 L222 245 L118 0 L72 0 Z" fill="url(#white)"/>
    <path d="M163 245 L216 245 L296 0 L243 0 Z" fill="url(#orange)"/>
  </g>

  <!-- Wordmark (outlined Montserrat Black, no font dependency) -->
  <path d="M705.322 535.0V432.8H733.646L785.622 494.996H772.482V432.8H806.062V535.0H777.738L725.762 472.804H738.902V535.0Z M842.706 535.0V432.8H925.78V458.788H876.578V509.012H927.678V535.0ZM874.242 495.58V470.76H919.794V495.58Z M960.964 535.0V432.8H1008.706Q1032.212 432.8 1044.476 443.16600000000005Q1056.74 453.53200000000004 1056.74 471.344Q1056.74 483.17 1051.046 491.711Q1045.352 500.252 1034.913 504.778Q1024.4740000000002 509.304 1010.166 509.304H980.09L995.4200000000001 495.142V535.0ZM1022.138 535.0 997.0260000000001 497.77H1033.526L1058.93 535.0ZM995.4200000000001 498.938 980.09 483.31600000000003H1007.976Q1015.1300000000001 483.31600000000003 1018.5610000000001 480.10400000000004Q1021.9920000000001 476.892 1021.9920000000001 471.344Q1021.9920000000001 465.796 1018.5610000000001 462.584Q1015.1300000000001 459.372 1007.976 459.372H980.09L995.4200000000001 443.75Z M1121.854 535.0 1078.6380000000001 432.8H1115.722L1150.9080000000001 519.086H1128.862L1165.07 432.8H1198.942L1155.726 535.0Z M1213.3940000000002 535.0 1258.0700000000002 432.8H1291.942L1336.6180000000002 535.0H1300.9940000000001L1267.998 449.152H1281.43L1248.4340000000002 535.0ZM1239.9660000000001 517.188 1248.726 492.368H1295.738L1304.498 517.188Z" fill="#f7f9fb"/>
</svg>