<svg xmlns="http://www.w3.org/2000/svg" viewBox="0 0 1600 900" role="img" aria-labelledby="t d">
  <title id="t">NERVA logo</title>
  <desc id="d">NERVA logo, big N mark with ERVA wordmark, for dark backgrounds.</desc>
  <defs>
    <linearGradient id="struct" x1="0" y1="0" x2="1" y2="1"><stop offset="0" stop-color="#ffffff"/><stop offset="1" stop-color="#dfe5ea"/></linearGradient>
    <linearGradient id="orange" x1="0" y1="0" x2="1" y2="1"><stop offset="0" stop-color="#ff6a2a"/><stop offset="1" stop-color="#ff2f12"/></linearGradient>
    <linearGradient id="word" x1="0" y1="0" x2="0" y2="1"><stop offset="0" stop-color="#ffffff"/><stop offset="0.5" stop-color="#dde4ea"/><stop offset="1" stop-color="#b6c1cc"/></linearGradient>
  </defs>

  <g transform="translate(346.6 284.6) scale(1.35)">
    <path d="M0 245 L53 245 L95 94 L168 245 L222 245 L118 0 L72 0 Z" fill="url(#struct)"/>
    <path d="M163 245 L216 245 L296 0 L243 0 Z" fill="url(#orange)"/>
  </g>

  <path d="M762.2348571428571 501.1V398.90000000000003H845.308857142857V424.88800000000003H796.106857142857V475.112H847.2068571428571V501.1ZM793.770857142857 461.68V436.86H839.3228571428571V461.68Z M880.4928571428571 501.1V398.90000000000003H928.2348571428571Q951.7408571428571 398.90000000000003 964.0048571428571 409.2660000000001Q976.2688571428571 419.63200000000006 976.2688571428571 437.444Q976.2688571428571 449.27000000000004 970.5748571428571 457.81100000000004Q964.8808571428572 466.35200000000003 954.4418571428571 470.87800000000004Q944.0028571428571 475.404 929.6948571428571 475.404H899.6188571428571L914.9488571428572 461.242V501.1ZM941.6668571428571 501.1 916.5548571428571 463.87H953.0548571428571L978.4588571428571 501.1ZM914.9488571428572 465.038 899.6188571428571 449.41600000000005H927.5048571428571Q934.6588571428572 449.41600000000005 938.0898571428572 446.20400000000006Q941.5208571428572 442.992 941.5208571428572 437.444Q941.5208571428572 431.896 938.0898571428572 428.684Q934.6588571428572 425.47200000000004 927.5048571428571 425.47200000000004H899.6188571428571L914.9488571428572 409.85Z M1041.3828571428571 501.1 998.1668571428571 398.90000000000003H1035.250857142857L1070.4368571428572 485.18600000000004H1048.3908571428572L1084.598857142857 398.90000000000003H1118.470857142857L1075.2548571428572 501.1Z M1132.922857142857 501.1 1177.598857142857 398.90000000000003H1211.4708571428569L1256.146857142857 501.1H1220.522857142857L1187.526857142857 415.252H1200.958857142857L1167.962857142857 501.1ZM1159.494857142857 483.288 1168.254857142857 458.468H1215.266857142857L1224.026857142857 483.288Z" fill="url(#word)"/>
</svg>