<svg xmlns="http://www.w3.org/2000/svg" viewBox="365.28 284.62 872.21 330.75" role="img" aria-labelledby="t d">
  <title id="t">NERVA logo</title>
  <desc id="d">NERVA logo, zero margin, transparent, for dark backgrounds.</desc>
  <defs>
    <linearGradient id="struct" x1="0" y1="0" x2="1" y2="1"><stop offset="0" stop-color="#ffffff"/><stop offset="1" stop-color="#dfe5ea"/></linearGradient>
    <linearGradient id="orange" x1="0" y1="0" x2="1" y2="1"><stop offset="0" stop-color="#ff6a2a"/><stop offset="1" stop-color="#ff2f12"/></linearGradient>
    <linearGradient id="word" x1="0" y1="0" x2="0" y2="1"><stop offset="0" stop-color="#ffffff"/><stop offset="0.5" stop-color="#dde4ea"/><stop offset="1" stop-color="#b6c1cc"/></linearGradient>
  </defs>

  <g transform="translate(365.28 284.62) scale(1.35)">
    <path d="M0 245 L53 245 L95 94 L168 245 L222 245 L118 0 L72 0 Z" fill="url(#struct)"/>
    <path d="M163 245 L216 245 L296 0 L243 0 Z" fill="url(#orange)"/>
  </g>

  <path d="M743.5777142857143 615.375V513.175H826.6517142857142V539.163H777.4497142857142V589.387H828.5497142857142V615.375ZM775.1137142857142 575.955V551.135H820.6657142857142V575.955Z M861.8357142857143 615.375V513.175H909.5777142857143Q933.0837142857142 513.175 945.3477142857142 523.5409999999999Q957.6117142857142 533.907 957.6117142857142 551.719Q957.6117142857142 563.545 951.9177142857143 572.086Q946.2237142857143 580.627 935.7847142857142 585.153Q925.3457142857143 589.679 911.0377142857143 589.679H880.9617142857143L896.2917142857143 575.517V615.375ZM923.0097142857143 615.375 897.8977142857143 578.145H934.3977142857143L959.8017142857143 615.375ZM896.2917142857143 579.313 880.9617142857143 563.691H908.8477142857142Q916.0017142857143 563.691 919.4327142857144 560.479Q922.8637142857143 557.267 922.8637142857143 551.719Q922.8637142857143 546.171 919.4327142857144 542.9590000000001Q916.0017142857143 539.747 908.8477142857142 539.747H880.9617142857143L896.2917142857143 524.125Z M1022.7257142857143 615.375 979.5097142857143 513.175H1016.5937142857142L1051.7797142857144 599.461H1029.7337142857143L1065.9417142857142 513.175H1099.8137142857142L1056.5977142857143 615.375Z M1114.2657142857142 615.375 1158.9417142857142 513.175H1192.813714285714L1237.4897142857142 615.375H1201.8657142857141L1168.869714285714 529.527H1182.301714285714L1149.3057142857142 615.375ZM1140.8377142857141 597.563 1149.5977142857141 572.743H1196.609714285714L1205.369714285714 597.563Z" fill="url(#word)"/>
</svg>